<mxfile host="app.diagrams.net" modified="2023-11-17T04:27:36.360Z" agent="Mozilla/5.0 (Windows NT 10.0; Win64; x64) AppleWebKit/537.36 (KHTML, like Gecko) Chrome/119.0.0.0 Safari/537.36" etag="hPdx5os3H8ngWXSJZsL1" version="22.1.2" type="device">
  <diagram name="Page-1" id="4WswMQRAQ6kxBN8r5tY7">
    <mxGraphModel dx="1807" dy="2241" grid="1" gridSize="10" guides="1" tooltips="1" connect="1" arrows="1" fold="1" page="1" pageScale="1" pageWidth="850" pageHeight="1100" math="0" shadow="0">
      <root>
        <mxCell id="0" />
        <mxCell id="1" parent="0" />
        <object label="&lt;font style=&quot;font-size: 10px&quot;&gt;&lt;b&gt;%name%&lt;/b&gt;&lt;br style=&quot;font-size: 10px&quot;&gt;[Software System]&lt;/font&gt;" placeholders="1" name="Software System Name" id="mKeHkEvi4MMIzb0560zX-1">
          <mxCell style="rounded=0;whiteSpace=wrap;html=1;strokeColor=#828282;fontColor=#404040;align=left;labelPosition=center;verticalLabelPosition=middle;verticalAlign=bottom;strokeWidth=2;perimeterSpacing=0;spacing=4;spacingTop=0;fontSize=10;fillColor=none;dashed=1;rotatable=0;metaEdit=1;allowArrows=0;" vertex="1" parent="1">
            <mxGeometry x="20" y="200" width="820" height="730" as="geometry" />
          </mxCell>
        </object>
        <object label="" placeholders="1" instruction="edit data of the lower shape within the group" id="mKeHkEvi4MMIzb0560zX-2">
          <mxCell style="group;resizable=0;rotatable=0;allowArrows=0;" vertex="1" connectable="0" parent="1">
            <mxGeometry x="350" y="-30" width="160" height="170" as="geometry" />
          </mxCell>
        </object>
        <object label="&lt;div style=&quot;color: rgb(255 , 255 , 255) ; white-space: normal&quot;&gt;&lt;span style=&quot;font-size: 14px&quot;&gt;&lt;b&gt;%name%&lt;/b&gt;&lt;/span&gt;&lt;/div&gt;&lt;div style=&quot;color: rgb(255 , 255 , 255) ; white-space: normal&quot;&gt;&lt;font style=&quot;font-size: 8px&quot;&gt;[Person]&lt;/font&gt;&lt;/div&gt;&lt;div style=&quot;color: rgb(255 , 255 , 255) ; white-space: normal ; font-size: 8px&quot;&gt;&lt;span style=&quot;font-size: x-small&quot;&gt;&lt;br&gt;&lt;/span&gt;&lt;/div&gt;&lt;div style=&quot;color: rgb(255 , 255 , 255) ; white-space: normal&quot;&gt;&lt;font size=&quot;1&quot;&gt;%description%&lt;/font&gt;&lt;/div&gt;" name="Client" description="A Public User in browser" placeholders="1" id="mKeHkEvi4MMIzb0560zX-3">
          <mxCell style="rounded=1;whiteSpace=wrap;html=1;strokeColor=#00315C;fillColor=#004179;fontColor=#000000;arcSize=31;rotatable=0;strokeWidth=2;metaEdit=1;allowArrows=0;" vertex="1" parent="mKeHkEvi4MMIzb0560zX-2">
            <mxGeometry y="70" width="160" height="100" as="geometry" />
          </mxCell>
        </object>
        <mxCell id="mKeHkEvi4MMIzb0560zX-4" value="" style="ellipse;whiteSpace=wrap;html=1;aspect=fixed;strokeColor=#00315C;fillColor=#004179;fontColor=#000000;rotatable=0;strokeWidth=2;allowArrows=0;" vertex="1" parent="mKeHkEvi4MMIzb0560zX-2">
          <mxGeometry x="40" width="80" height="80" as="geometry" />
        </mxCell>
        <object label="&lt;div&gt;&lt;span style=&quot;font-size: 14px&quot;&gt;&lt;b&gt;%name%&lt;/b&gt;&lt;/span&gt;&lt;/div&gt;&lt;div&gt;&lt;span style=&quot;font-size: 8px&quot;&gt;[Component: %technology%]&lt;/span&gt;&lt;/div&gt;&lt;div&gt;&lt;span style=&quot;font-size: 8px&quot;&gt;&lt;br&gt;&lt;/span&gt;&lt;/div&gt;&lt;div&gt;&lt;font size=&quot;1&quot;&gt;%description%&lt;/font&gt;&lt;/div&gt;" placeholders="1" name="GUI client" technology="Web App with Nginx dependancy" description="Represents available context options to the user." id="mKeHkEvi4MMIzb0560zX-6">
          <mxCell style="rounded=1;whiteSpace=wrap;html=1;fillColor=#85baf0;fontColor=#404040;strokeColor=#6992BD;resizable=0;rotatable=0;strokeWidth=2;metaEdit=1;allowArrows=0;" vertex="1" parent="1">
            <mxGeometry x="20" y="210" width="180" height="120" as="geometry" />
          </mxCell>
        </object>
        <object label="&lt;span style=&quot;font-size: 10px&quot;&gt;&lt;b&gt;%name%&lt;/b&gt;&lt;br&gt;[%technology%]&lt;br&gt;&lt;/span&gt;" placeholders="1" name="Accesses site" technology="HTTP" id="mKeHkEvi4MMIzb0560zX-7">
          <mxCell style="endArrow=block;html=1;fontSize=10;fontColor=#404040;strokeWidth=1;endFill=1;strokeColor=#828282;elbow=vertical;metaEdit=1;entryX=0.5;entryY=0;entryDx=0;entryDy=0;exitX=0.25;exitY=1;exitDx=0;exitDy=0;" edge="1" parent="1" source="mKeHkEvi4MMIzb0560zX-3" target="mKeHkEvi4MMIzb0560zX-6">
            <mxGeometry width="50" height="50" relative="1" as="geometry">
              <mxPoint x="170" y="90" as="sourcePoint" />
              <mxPoint x="520" y="480" as="targetPoint" />
            </mxGeometry>
          </mxCell>
        </object>
        <object label="&lt;span style=&quot;font-size: 10px&quot;&gt;&lt;b&gt;%name%&lt;/b&gt;&lt;br&gt;&lt;/span&gt;" placeholders="1" name="Returns data w/ Current Instance" id="mKeHkEvi4MMIzb0560zX-10">
          <mxCell style="endArrow=block;html=1;fontSize=10;fontColor=#404040;strokeWidth=1;endFill=1;strokeColor=#828282;elbow=vertical;metaEdit=1;exitX=0.5;exitY=0;exitDx=0;exitDy=0;entryX=0.5;entryY=1;entryDx=0;entryDy=0;" edge="1" parent="1" source="mKeHkEvi4MMIzb0560zX-9" target="mKeHkEvi4MMIzb0560zX-6">
            <mxGeometry width="50" height="50" relative="1" as="geometry">
              <mxPoint x="260" y="500" as="sourcePoint" />
              <mxPoint x="460" y="500" as="targetPoint" />
            </mxGeometry>
          </mxCell>
        </object>
        <object label="&lt;span style=&quot;font-size: 10px&quot;&gt;&lt;b&gt;%name%&lt;/b&gt;&lt;br&gt;&lt;/span&gt;" placeholders="1" name="Health Check" id="mKeHkEvi4MMIzb0560zX-14">
          <mxCell style="endArrow=block;html=1;fontSize=10;fontColor=#404040;strokeWidth=1;endFill=1;strokeColor=#828282;elbow=vertical;metaEdit=1;entryX=0.034;entryY=0.125;entryDx=0;entryDy=0;entryPerimeter=0;exitX=0.75;exitY=0;exitDx=0;exitDy=0;" edge="1" parent="1" source="mKeHkEvi4MMIzb0560zX-22" target="mKeHkEvi4MMIzb0560zX-17">
            <mxGeometry x="0.0045" width="50" height="50" relative="1" as="geometry">
              <mxPoint x="260" y="500" as="sourcePoint" />
              <mxPoint x="460" y="500" as="targetPoint" />
              <mxPoint as="offset" />
            </mxGeometry>
          </mxCell>
        </object>
        <object label="&lt;div&gt;&lt;b style=&quot;font-size: 14px&quot;&gt;%name%&lt;/b&gt;&lt;br&gt;&lt;/div&gt;&lt;div style=&quot;font-size: 12px&quot;&gt;&lt;font style=&quot;font-size: 8px&quot;&gt;[Container: %technology%]&lt;/font&gt;&lt;/div&gt;&lt;div style=&quot;font-size: 8px&quot;&gt;&lt;font style=&quot;line-height: 9.6px&quot;&gt;%technology-img-tag%&lt;br&gt;&lt;/font&gt;&lt;/div&gt;&lt;div&gt;&lt;font&gt;%description%&lt;/font&gt;&lt;/div&gt;" placeholders="1" name="Backup Database" description="In case of Database failure" technology="Instance" technology-img-tag="" id="mKeHkEvi4MMIzb0560zX-18">
          <mxCell style="shape=cylinder;whiteSpace=wrap;html=1;boundedLbl=1;backgroundOutline=1;strokeColor=#CCCCCC;strokeWidth=2;fillColor=#FFFFFF;fontSize=9;fontColor=#404040;align=center;resizable=0;rotatable=0;verticalAlign=middle;spacing=2;metaEdit=1;allowArrows=0;" vertex="1" parent="1">
            <mxGeometry x="550" y="600" width="180" height="120" as="geometry" />
          </mxCell>
        </object>
        <object label="&lt;div&gt;&lt;span style=&quot;font-size: 14px&quot;&gt;&lt;b&gt;%name%&lt;/b&gt;&lt;/span&gt;&lt;/div&gt;&lt;div&gt;&lt;span style=&quot;font-size: 8px&quot;&gt;[Software System]&lt;/span&gt;&lt;/div&gt;&lt;div&gt;&lt;span style=&quot;font-size: 8px&quot;&gt;&lt;br&gt;&lt;/span&gt;&lt;/div&gt;&lt;div&gt;&lt;font size=&quot;1&quot;&gt;%description%&lt;/font&gt;&lt;/div&gt;" name="Database Monitor" description="Monitors Database for failure, switches to backup." placeholders="1" id="mKeHkEvi4MMIzb0560zX-22">
          <mxCell style="rounded=1;whiteSpace=wrap;html=1;fillColor=#0067BA;fontColor=#FFFFFF;strokeColor=#005DA8;resizable=0;rotatable=0;strokeWidth=2;metaEdit=1;allowArrows=0;rotation=0;" vertex="1" parent="1">
            <mxGeometry x="275" y="550" width="180" height="120" as="geometry" />
          </mxCell>
        </object>
        <object label="&lt;div&gt;&lt;b style=&quot;font-size: 14px&quot;&gt;%name%&lt;/b&gt;&lt;br&gt;&lt;/div&gt;&lt;div style=&quot;font-size: 12px&quot;&gt;&lt;font style=&quot;font-size: 8px&quot;&gt;[Container: %technology%]&lt;/font&gt;&lt;/div&gt;&lt;div style=&quot;font-size: 8px&quot;&gt;&lt;font style=&quot;line-height: 9.6px&quot;&gt;%technology-img-tag%&lt;br&gt;&lt;/font&gt;&lt;/div&gt;&lt;div&gt;&lt;font&gt;%description%&lt;/font&gt;&lt;/div&gt;" placeholders="1" name="Database" description="Contains all relevant info, will update timestamp if failure" technology="Instance" technology-img-tag="" id="mKeHkEvi4MMIzb0560zX-17">
          <mxCell style="shape=cylinder;whiteSpace=wrap;html=1;boundedLbl=1;backgroundOutline=1;strokeColor=#CCCCCC;strokeWidth=2;fillColor=#FFFFFF;fontSize=9;fontColor=#404040;align=center;resizable=0;rotatable=0;verticalAlign=middle;spacing=2;metaEdit=1;allowArrows=0;" vertex="1" parent="1">
            <mxGeometry x="550" y="510" width="180" height="120" as="geometry" />
          </mxCell>
        </object>
        <object label="&lt;b&gt;%name%&lt;/b&gt;&lt;br style=&quot;font-size: 10px&quot;&gt;[%technology%]" placeholders="1" name="Uses" technology="" id="mKeHkEvi4MMIzb0560zX-25">
          <mxCell style="endArrow=block;html=1;fontSize=10;fontColor=#404040;strokeWidth=1;endFill=1;dashed=1;dashPattern=8 8;strokeColor=#828282;elbow=vertical;metaEdit=1;exitX=1;exitY=0.25;exitDx=0;exitDy=0;" edge="1" parent="1" source="mKeHkEvi4MMIzb0560zX-22" target="mKeHkEvi4MMIzb0560zX-17">
            <mxGeometry width="50" height="50" relative="1" as="geometry">
              <mxPoint x="210" y="649" as="sourcePoint" />
              <mxPoint x="320" y="644" as="targetPoint" />
            </mxGeometry>
          </mxCell>
        </object>
        <object label="&lt;div&gt;&lt;span style=&quot;font-size: 14px&quot;&gt;&lt;b&gt;%name%&lt;/b&gt;&lt;/span&gt;&lt;/div&gt;&lt;div&gt;&lt;span style=&quot;font-size: 8px&quot;&gt;[Software System]&lt;/span&gt;&lt;/div&gt;&lt;div&gt;&lt;span style=&quot;font-size: 8px&quot;&gt;&lt;br&gt;&lt;/span&gt;&lt;/div&gt;&lt;div&gt;&lt;font size=&quot;1&quot;&gt;%description%&lt;/font&gt;&lt;/div&gt;" name="Service Monitor" description="Monitors service instances for failure, keeps at least one." placeholders="1" id="mKeHkEvi4MMIzb0560zX-27">
          <mxCell style="rounded=1;whiteSpace=wrap;html=1;fillColor=#0067BA;fontColor=#FFFFFF;strokeColor=#005DA8;resizable=0;rotatable=0;strokeWidth=2;metaEdit=1;allowArrows=0;rotation=0;" vertex="1" parent="1">
            <mxGeometry x="170" y="710" width="180" height="120" as="geometry" />
          </mxCell>
        </object>
        <object label="&lt;div&gt;&lt;span style=&quot;font-size: 14px&quot;&gt;&lt;b&gt;%name%&lt;/b&gt;&lt;/span&gt;&lt;/div&gt;&lt;div&gt;&lt;span style=&quot;font-size: 8px&quot;&gt;[Container: %technology%]&lt;/span&gt;&lt;/div&gt;&lt;div&gt;&lt;span style=&quot;font-size: 8px&quot;&gt;%technology-img-tag%&lt;/span&gt;&lt;/div&gt;&lt;div&gt;&lt;font size=&quot;1&quot;&gt;%description%&lt;/font&gt;&lt;/div&gt;" placeholders="1" name="Container Name" technology="e.g. Python, Flask" description="Description" technology-img-tag="&lt;img src=&quot;https://upload.wikimedia.org/wikipedia/commons/c/c3/Python-logo-notext.svg&quot; width=&quot;24&quot; height=&quot;24&quot;&gt;" id="mKeHkEvi4MMIzb0560zX-28">
          <mxCell style="rounded=1;whiteSpace=wrap;html=1;fillColor=#FFFFFF;fontColor=#404040;strokeColor=#CCCCCC;resizable=0;rotatable=0;strokeWidth=2;metaEdit=1;allowArrows=0;" vertex="1" parent="1">
            <mxGeometry x="510" y="755" width="180" height="120" as="geometry" />
          </mxCell>
        </object>
        <object label="&lt;div&gt;&lt;span style=&quot;font-size: 14px&quot;&gt;&lt;b&gt;%name%&lt;/b&gt;&lt;/span&gt;&lt;/div&gt;&lt;div&gt;&lt;span style=&quot;font-size: 8px&quot;&gt;[Container: %technology%]&lt;/span&gt;&lt;/div&gt;&lt;div&gt;&lt;span style=&quot;font-size: 8px&quot;&gt;%technology-img-tag%&lt;/span&gt;&lt;/div&gt;&lt;div&gt;&lt;font size=&quot;1&quot;&gt;%description%&lt;/font&gt;&lt;/div&gt;" placeholders="1" name="Container Name" technology="e.g. Python, Flask" description="Description" technology-img-tag="&lt;img src=&quot;https://upload.wikimedia.org/wikipedia/commons/c/c3/Python-logo-notext.svg&quot; width=&quot;24&quot; height=&quot;24&quot;&gt;" id="mKeHkEvi4MMIzb0560zX-29">
          <mxCell style="rounded=1;whiteSpace=wrap;html=1;fillColor=#FFFFFF;fontColor=#404040;strokeColor=#CCCCCC;resizable=0;rotatable=0;strokeWidth=2;metaEdit=1;allowArrows=0;" vertex="1" parent="1">
            <mxGeometry x="520" y="765" width="180" height="120" as="geometry" />
          </mxCell>
        </object>
        <object label="&lt;div&gt;&lt;span style=&quot;font-size: 14px&quot;&gt;&lt;b&gt;%name%&lt;/b&gt;&lt;/span&gt;&lt;/div&gt;&lt;div&gt;&lt;span style=&quot;font-size: 8px&quot;&gt;[Container: %technology%]&lt;/span&gt;&lt;/div&gt;&lt;div&gt;&lt;span style=&quot;font-size: 8px&quot;&gt;%technology-img-tag%&lt;/span&gt;&lt;/div&gt;&lt;div&gt;&lt;font size=&quot;1&quot;&gt;%description%&lt;/font&gt;&lt;/div&gt;" placeholders="1" name="Container Name" technology="e.g. Python, Flask" description="Description" technology-img-tag="&lt;img src=&quot;https://upload.wikimedia.org/wikipedia/commons/c/c3/Python-logo-notext.svg&quot; width=&quot;24&quot; height=&quot;24&quot;&gt;" id="mKeHkEvi4MMIzb0560zX-30">
          <mxCell style="rounded=1;whiteSpace=wrap;html=1;fillColor=#FFFFFF;fontColor=#404040;strokeColor=#CCCCCC;resizable=0;rotatable=0;strokeWidth=2;metaEdit=1;allowArrows=0;" vertex="1" parent="1">
            <mxGeometry x="530" y="775" width="180" height="120" as="geometry" />
          </mxCell>
        </object>
        <object label="&lt;div&gt;&lt;span style=&quot;font-size: 14px&quot;&gt;&lt;b&gt;%name%&lt;/b&gt;&lt;/span&gt;&lt;/div&gt;&lt;div&gt;&lt;span style=&quot;font-size: 8px&quot;&gt;[Container: %technology%]&lt;/span&gt;&lt;/div&gt;&lt;div&gt;&lt;span style=&quot;font-size: 8px&quot;&gt;%technology-img-tag%&lt;/span&gt;&lt;/div&gt;&lt;div&gt;&lt;font size=&quot;1&quot;&gt;%description%&lt;/font&gt;&lt;/div&gt;" placeholders="1" name="Services" technology="e.g. sevrice101, service102..." description="Current instances of available services " technology-img-tag="" id="mKeHkEvi4MMIzb0560zX-31">
          <mxCell style="rounded=1;whiteSpace=wrap;html=1;fillColor=#FFFFFF;fontColor=#404040;strokeColor=#CCCCCC;resizable=0;rotatable=0;strokeWidth=2;metaEdit=1;allowArrows=0;" vertex="1" parent="1">
            <mxGeometry x="540" y="785" width="180" height="120" as="geometry" />
          </mxCell>
        </object>
        <object label="&lt;b&gt;%name%&lt;/b&gt;&lt;br style=&quot;font-size: 10px&quot;&gt;[%technology%]" placeholders="1" name="Uses" technology="" id="mKeHkEvi4MMIzb0560zX-26">
          <mxCell style="endArrow=block;html=1;fontSize=10;fontColor=#404040;strokeWidth=1;endFill=1;dashed=1;dashPattern=8 8;strokeColor=#828282;elbow=vertical;metaEdit=1;exitX=0.992;exitY=0.664;exitDx=0;exitDy=0;exitPerimeter=0;entryX=0;entryY=0.75;entryDx=0;entryDy=0;" edge="1" parent="1" source="mKeHkEvi4MMIzb0560zX-27" target="mKeHkEvi4MMIzb0560zX-31">
            <mxGeometry width="50" height="50" relative="1" as="geometry">
              <mxPoint x="500" y="610" as="sourcePoint" />
              <mxPoint x="560" y="598" as="targetPoint" />
            </mxGeometry>
          </mxCell>
        </object>
        <mxCell id="mKeHkEvi4MMIzb0560zX-34" value="" style="endArrow=classic;html=1;rounded=0;entryX=0.076;entryY=0.02;entryDx=0;entryDy=0;entryPerimeter=0;strokeColor=#828282;" edge="1" parent="1" target="mKeHkEvi4MMIzb0560zX-30">
          <mxGeometry width="50" height="50" relative="1" as="geometry">
            <mxPoint x="510" y="730" as="sourcePoint" />
            <mxPoint x="440" y="640" as="targetPoint" />
          </mxGeometry>
        </mxCell>
        <mxCell id="mKeHkEvi4MMIzb0560zX-35" value="" style="endArrow=classic;html=1;rounded=0;entryX=0.027;entryY=0.067;entryDx=0;entryDy=0;entryPerimeter=0;strokeColor=#828282;" edge="1" parent="1" target="mKeHkEvi4MMIzb0560zX-29">
          <mxGeometry width="50" height="50" relative="1" as="geometry">
            <mxPoint x="510" y="730" as="sourcePoint" />
            <mxPoint x="554" y="787" as="targetPoint" />
          </mxGeometry>
        </mxCell>
        <mxCell id="mKeHkEvi4MMIzb0560zX-36" value="" style="endArrow=classic;html=1;rounded=0;entryX=0.03;entryY=0.071;entryDx=0;entryDy=0;entryPerimeter=0;strokeColor=#828282;" edge="1" parent="1" target="mKeHkEvi4MMIzb0560zX-28">
          <mxGeometry width="50" height="50" relative="1" as="geometry">
            <mxPoint x="510" y="730" as="sourcePoint" />
            <mxPoint x="564" y="797" as="targetPoint" />
          </mxGeometry>
        </mxCell>
        <object label="&lt;span style=&quot;font-size: 10px&quot;&gt;&lt;b&gt;%name%&lt;/b&gt;&lt;br&gt;&lt;/span&gt;" placeholders="1" name="Health Checks" id="mKeHkEvi4MMIzb0560zX-23">
          <mxCell style="endArrow=block;html=1;fontSize=10;fontColor=#404040;strokeWidth=1;endFill=1;strokeColor=#828282;elbow=vertical;metaEdit=1;entryX=0.15;entryY=0.003;entryDx=0;entryDy=0;entryPerimeter=0;" edge="1" parent="1" source="mKeHkEvi4MMIzb0560zX-27" target="mKeHkEvi4MMIzb0560zX-31">
            <mxGeometry x="0.002" width="50" height="50" relative="1" as="geometry">
              <mxPoint x="-40" y="380" as="sourcePoint" />
              <mxPoint x="-50" y="580" as="targetPoint" />
              <Array as="points">
                <mxPoint x="440" y="760" />
                <mxPoint x="510" y="730" />
              </Array>
              <mxPoint as="offset" />
            </mxGeometry>
          </mxCell>
        </object>
        <object label="&lt;b&gt;%name%&lt;/b&gt;&lt;br style=&quot;font-size: 10px&quot;&gt;[%technology%]" placeholders="1" name="Accesses Data" technology="Dependant" id="mKeHkEvi4MMIzb0560zX-21">
          <mxCell style="endArrow=block;html=1;fontSize=10;fontColor=#404040;strokeWidth=1;endFill=1;dashed=1;dashPattern=8 8;strokeColor=#828282;elbow=vertical;metaEdit=1;exitX=0.998;exitY=0.327;exitDx=0;exitDy=0;exitPerimeter=0;entryX=0;entryY=0.75;entryDx=0;entryDy=0;" edge="1" parent="1" source="mKeHkEvi4MMIzb0560zX-9" target="mKeHkEvi4MMIzb0560zX-22">
            <mxGeometry x="0.164" y="-25" width="50" height="50" relative="1" as="geometry">
              <mxPoint x="260" y="420" as="sourcePoint" />
              <mxPoint x="460" y="420" as="targetPoint" />
              <mxPoint as="offset" />
            </mxGeometry>
          </mxCell>
        </object>
        <object label="&lt;div&gt;&lt;span style=&quot;font-size: 14px&quot;&gt;&lt;b&gt;%name%&lt;/b&gt;&lt;/span&gt;&lt;/div&gt;&lt;div&gt;&lt;span style=&quot;font-size: 8px&quot;&gt;[Software System]&lt;/span&gt;&lt;/div&gt;&lt;div&gt;&lt;span style=&quot;font-size: 8px&quot;&gt;&lt;br&gt;&lt;/span&gt;&lt;/div&gt;&lt;div&gt;&lt;font size=&quot;1&quot;&gt;%description%&lt;/font&gt;&lt;/div&gt;" name="Registry Monitor" description="Will switch to backup register if failure occurs on main" placeholders="1" id="mKeHkEvi4MMIzb0560zX-38">
          <mxCell style="rounded=1;whiteSpace=wrap;html=1;fillColor=#0067BA;fontColor=#FFFFFF;strokeColor=#005DA8;resizable=0;rotatable=0;strokeWidth=2;metaEdit=1;allowArrows=0;rotation=0;" vertex="1" parent="1">
            <mxGeometry x="400" y="300" width="180" height="120" as="geometry" />
          </mxCell>
        </object>
        <object label="&lt;span style=&quot;font-size: 10px&quot;&gt;&lt;b&gt;%name%&lt;/b&gt;&lt;br&gt;&lt;/span&gt;" placeholders="1" name="Health Response" id="mKeHkEvi4MMIzb0560zX-39">
          <mxCell style="endArrow=block;html=1;fontSize=10;fontColor=#404040;strokeWidth=1;endFill=1;strokeColor=#828282;elbow=vertical;metaEdit=1;exitX=0.024;exitY=0.861;exitDx=0;exitDy=0;exitPerimeter=0;" edge="1" parent="1" source="mKeHkEvi4MMIzb0560zX-17" target="mKeHkEvi4MMIzb0560zX-22">
            <mxGeometry x="0.0067" width="50" height="50" relative="1" as="geometry">
              <mxPoint x="420" y="560" as="sourcePoint" />
              <mxPoint x="566" y="535" as="targetPoint" />
              <mxPoint as="offset" />
            </mxGeometry>
          </mxCell>
        </object>
        <object label="&lt;span style=&quot;font-size: 10px&quot;&gt;&lt;b&gt;%name%&lt;/b&gt;&lt;br&gt;&lt;/span&gt;" placeholders="1" name="Health Responses" id="mKeHkEvi4MMIzb0560zX-40">
          <mxCell style="endArrow=block;html=1;fontSize=10;fontColor=#404040;strokeWidth=1;endFill=1;strokeColor=#828282;elbow=vertical;metaEdit=1;exitX=0;exitY=0.5;exitDx=0;exitDy=0;" edge="1" parent="1" source="mKeHkEvi4MMIzb0560zX-28" target="mKeHkEvi4MMIzb0560zX-27">
            <mxGeometry x="-0.6003" y="-15" width="50" height="50" relative="1" as="geometry">
              <mxPoint x="564" y="623" as="sourcePoint" />
              <mxPoint x="465" y="622" as="targetPoint" />
              <mxPoint as="offset" />
            </mxGeometry>
          </mxCell>
        </object>
        <object label="&lt;div&gt;&lt;span style=&quot;font-size: 14px&quot;&gt;&lt;b&gt;%name%&lt;/b&gt;&lt;/span&gt;&lt;/div&gt;&lt;div&gt;&lt;span style=&quot;font-size: 8px&quot;&gt;[Component: %technology%]&lt;/span&gt;&lt;/div&gt;&lt;div&gt;&lt;span style=&quot;font-size: 8px&quot;&gt;&lt;br&gt;&lt;/span&gt;&lt;/div&gt;&lt;div&gt;&lt;font size=&quot;1&quot;&gt;%description%&lt;/font&gt;&lt;/div&gt;" placeholders="1" name="Registry" technology="" description="Maintains working and backup registers, ensures a register is available" id="mKeHkEvi4MMIzb0560zX-8">
          <mxCell style="rounded=1;whiteSpace=wrap;html=1;fillColor=#85baf0;fontColor=#404040;strokeColor=#6992BD;resizable=0;rotatable=0;strokeWidth=2;metaEdit=1;allowArrows=0;" vertex="1" parent="1">
            <mxGeometry x="250" y="230" width="180" height="120" as="geometry" />
          </mxCell>
        </object>
        <object label="&lt;div&gt;&lt;span style=&quot;font-size: 14px&quot;&gt;&lt;b&gt;%name%&lt;/b&gt;&lt;/span&gt;&lt;/div&gt;&lt;div&gt;&lt;span style=&quot;font-size: 8px&quot;&gt;[Component: %technology%]&lt;/span&gt;&lt;/div&gt;&lt;div&gt;&lt;span style=&quot;font-size: 8px&quot;&gt;&lt;br&gt;&lt;/span&gt;&lt;/div&gt;&lt;div&gt;&lt;font size=&quot;1&quot;&gt;%description%&lt;/font&gt;&lt;/div&gt;" placeholders="1" name="Service provider" technology="" description="Ensures sub-services instantiated with at least one or more instances to prevent interruptions." id="mKeHkEvi4MMIzb0560zX-9">
          <mxCell style="rounded=1;whiteSpace=wrap;html=1;fillColor=#85baf0;fontColor=#404040;strokeColor=#6992BD;resizable=0;rotatable=0;strokeWidth=2;metaEdit=1;allowArrows=0;" vertex="1" parent="1">
            <mxGeometry x="20" y="645" width="180" height="120" as="geometry" />
          </mxCell>
        </object>
        <object label="&lt;b&gt;%name%&lt;/b&gt;&lt;br style=&quot;font-size: 10px&quot;&gt;[%technology%]" placeholders="1" name="Uses" technology="" id="mKeHkEvi4MMIzb0560zX-44">
          <mxCell style="endArrow=block;html=1;fontSize=10;fontColor=#404040;strokeWidth=1;endFill=1;dashed=1;dashPattern=8 8;strokeColor=#828282;elbow=vertical;metaEdit=1;exitX=0.25;exitY=1;exitDx=0;exitDy=0;entryX=0;entryY=0.75;entryDx=0;entryDy=0;" edge="1" parent="1" source="mKeHkEvi4MMIzb0560zX-9" target="mKeHkEvi4MMIzb0560zX-27">
            <mxGeometry x="0.0286" y="3" width="50" height="50" relative="1" as="geometry">
              <mxPoint x="260" y="420" as="sourcePoint" />
              <mxPoint x="460" y="420" as="targetPoint" />
              <mxPoint as="offset" />
            </mxGeometry>
          </mxCell>
        </object>
        <object label="&lt;b&gt;%name%&lt;/b&gt;&lt;br style=&quot;font-size: 10px&quot;&gt;[%technology%]" placeholders="1" name="Uses" technology="" id="mKeHkEvi4MMIzb0560zX-45">
          <mxCell style="endArrow=block;html=1;fontSize=10;fontColor=#404040;strokeWidth=1;endFill=1;dashed=1;dashPattern=8 8;strokeColor=#828282;elbow=vertical;metaEdit=1;exitX=0.25;exitY=1;exitDx=0;exitDy=0;entryX=0;entryY=0.75;entryDx=0;entryDy=0;" edge="1" parent="1" source="mKeHkEvi4MMIzb0560zX-8" target="mKeHkEvi4MMIzb0560zX-38">
            <mxGeometry x="0.0286" y="3" width="50" height="50" relative="1" as="geometry">
              <mxPoint x="75" y="775" as="sourcePoint" />
              <mxPoint x="180" y="810" as="targetPoint" />
              <mxPoint as="offset" />
            </mxGeometry>
          </mxCell>
        </object>
        <object label="&lt;div&gt;&lt;span style=&quot;font-size: 14px&quot;&gt;&lt;b&gt;%name%&lt;/b&gt;&lt;/span&gt;&lt;/div&gt;&lt;div&gt;&lt;span style=&quot;font-size: 8px&quot;&gt;[Container: %technology%]&lt;/span&gt;&lt;/div&gt;&lt;div&gt;&lt;span style=&quot;font-size: 8px&quot;&gt;%technology-img-tag%&lt;/span&gt;&lt;/div&gt;&lt;div&gt;&lt;font size=&quot;1&quot;&gt;%description%&lt;/font&gt;&lt;/div&gt;" placeholders="1" name="Primary Register" technology="" description="Keeps record of services" technology-img-tag="" id="mKeHkEvi4MMIzb0560zX-46">
          <mxCell style="rounded=1;whiteSpace=wrap;html=1;fillColor=#FFFFFF;fontColor=#404040;strokeColor=#CCCCCC;resizable=0;rotatable=0;strokeWidth=2;metaEdit=1;allowArrows=0;" vertex="1" parent="1">
            <mxGeometry x="640" y="210" width="180" height="120" as="geometry" />
          </mxCell>
        </object>
        <object label="&lt;div&gt;&lt;span style=&quot;font-size: 14px&quot;&gt;&lt;b&gt;%name%&lt;/b&gt;&lt;/span&gt;&lt;/div&gt;&lt;div&gt;&lt;span style=&quot;font-size: 8px&quot;&gt;[Container: %technology%]&lt;/span&gt;&lt;/div&gt;&lt;div&gt;&lt;span style=&quot;font-size: 8px&quot;&gt;%technology-img-tag%&lt;/span&gt;&lt;/div&gt;&lt;div&gt;&lt;font size=&quot;1&quot;&gt;%description%&lt;/font&gt;&lt;/div&gt;" placeholders="1" name="Backup Register" technology="" description="In case the main registry fails" technology-img-tag="" id="mKeHkEvi4MMIzb0560zX-47">
          <mxCell style="rounded=1;whiteSpace=wrap;html=1;fillColor=#FFFFFF;fontColor=#404040;strokeColor=#CCCCCC;resizable=0;rotatable=0;strokeWidth=2;metaEdit=1;allowArrows=0;" vertex="1" parent="1">
            <mxGeometry x="610" y="360" width="180" height="120" as="geometry" />
          </mxCell>
        </object>
        <object label="&lt;span style=&quot;font-size: 10px&quot;&gt;&lt;b&gt;%name%&lt;/b&gt;&lt;br&gt;&lt;/span&gt;" placeholders="1" name="Health Check" id="mKeHkEvi4MMIzb0560zX-48">
          <mxCell style="endArrow=block;html=1;fontSize=10;fontColor=#404040;strokeWidth=1;endFill=1;strokeColor=#828282;elbow=vertical;metaEdit=1;exitX=1;exitY=0.25;exitDx=0;exitDy=0;" edge="1" parent="1" source="mKeHkEvi4MMIzb0560zX-38" target="mKeHkEvi4MMIzb0560zX-46">
            <mxGeometry x="0.0045" width="50" height="50" relative="1" as="geometry">
              <mxPoint x="420" y="560" as="sourcePoint" />
              <mxPoint x="566" y="535" as="targetPoint" />
              <mxPoint as="offset" />
            </mxGeometry>
          </mxCell>
        </object>
        <object label="&lt;span style=&quot;font-size: 10px&quot;&gt;&lt;b&gt;%name%&lt;/b&gt;&lt;br&gt;&lt;/span&gt;" placeholders="1" name="Health Response" id="mKeHkEvi4MMIzb0560zX-50">
          <mxCell style="endArrow=block;html=1;fontSize=10;fontColor=#404040;strokeWidth=1;endFill=1;strokeColor=#828282;elbow=vertical;metaEdit=1;entryX=1;entryY=0.5;entryDx=0;entryDy=0;" edge="1" parent="1" source="mKeHkEvi4MMIzb0560zX-46" target="mKeHkEvi4MMIzb0560zX-38">
            <mxGeometry x="0.0067" width="50" height="50" relative="1" as="geometry">
              <mxPoint x="564" y="623" as="sourcePoint" />
              <mxPoint x="465" y="622" as="targetPoint" />
              <mxPoint as="offset" />
            </mxGeometry>
          </mxCell>
        </object>
        <object label="&lt;span style=&quot;font-size: 10px&quot;&gt;&lt;b&gt;%name%&lt;/b&gt;&lt;br&gt;&lt;/span&gt;" placeholders="1" name="Registration" id="mKeHkEvi4MMIzb0560zX-51">
          <mxCell style="endArrow=block;html=1;fontSize=10;fontColor=#404040;strokeWidth=1;endFill=1;strokeColor=#828282;elbow=vertical;metaEdit=1;entryX=0.885;entryY=0.991;entryDx=0;entryDy=0;entryPerimeter=0;exitX=1;exitY=0.25;exitDx=0;exitDy=0;" edge="1" parent="1" source="mKeHkEvi4MMIzb0560zX-31" target="mKeHkEvi4MMIzb0560zX-46">
            <mxGeometry x="0.002" width="50" height="50" relative="1" as="geometry">
              <mxPoint x="360" y="775" as="sourcePoint" />
              <mxPoint x="577" y="795" as="targetPoint" />
              <Array as="points">
                <mxPoint x="820" y="600" />
                <mxPoint x="820" y="410" />
              </Array>
              <mxPoint as="offset" />
            </mxGeometry>
          </mxCell>
        </object>
        <mxCell id="mKeHkEvi4MMIzb0560zX-52" value="" style="endArrow=classic;html=1;rounded=0;strokeColor=#828282;" edge="1" parent="1" target="mKeHkEvi4MMIzb0560zX-47">
          <mxGeometry width="50" height="50" relative="1" as="geometry">
            <mxPoint x="820" y="410" as="sourcePoint" />
            <mxPoint x="554" y="787" as="targetPoint" />
          </mxGeometry>
        </mxCell>
      </root>
    </mxGraphModel>
  </diagram>
</mxfile>
